<?xml version="1.0" standalone="no"?><!DOCTYPE svg PUBLIC "-//W3C//DTD SVG 1.1//EN" "http://www.w3.org/Graphics/SVG/1.1/DTD/svg11.dtd"><svg t="1741954839401" class="icon" viewBox="0 0 1024 1024" version="1.1" xmlns="http://www.w3.org/2000/svg" p-id="2049" xmlns:xlink="http://www.w3.org/1999/xlink" width="200" height="200"><path d="M898.8444448 261.68888853l-227.55555627-227.5555552c-4.55111147-4.55111147-13.65333333-9.10222187-22.7555552-9.10222186H193.42222187C147.91111147 20.48 111.50222187 56.88888853 111.50222187 102.4v819.2c0 45.51111147 36.40888853 81.92 81.92 81.92h637.15555626c45.51111147 0 81.92-36.40888853 81.92-81.92V284.4444448c0-9.10222187-4.55111147-18.2044448-13.65333333-22.75555627zM839.68 921.6c0 4.55111147-4.55111147 9.10222187-9.10222187 9.10222187H193.42222187c-4.55111147 0-9.10222187-4.55111147-9.10222187-9.10222187V102.4c0-4.55111147 4.55111147-9.10222187 9.10222187-9.10222187h441.45777813l209.35111147 209.3511104V921.6z" fill="#727171" p-id="2050"></path><path d="M293.54666667 420.97777813c0 18.2044448 13.65333333 36.40888853 36.40888853 36.40888854h364.0888896c18.2044448 0 36.40888853-13.65333333 36.40888853-36.40888854s-18.2044448-36.40888853-36.40888853-36.4088896H329.9555552c-18.2044448 0-36.40888853 18.2044448-36.40888853 36.4088896zM694.0444448 566.61333333H329.9555552c-18.2044448 0-36.40888853 13.65333333-36.40888853 36.40888854s13.65333333 36.40888853 36.40888853 36.4088896h364.0888896c18.2044448 0 36.40888853-13.65333333 36.40888853-36.4088896s-18.2044448-36.40888853-36.40888853-36.40888854z" fill="#727171" p-id="2051"></path></svg>